<svg width="298" height="137" viewBox="0 0 298 137" fill="none" xmlns="http://www.w3.org/2000/svg">
<g clip-path="url(#clip0_2144_77)">
<path d="M72.024 49.112C82.892 49.112 93.968 55.196 93.968 68.3C93.968 81.404 82.892 87.488 72.024 87.488C61.208 87.488 50.08 81.404 50.08 68.3C50.08 55.196 61.208 49.112 72.024 49.112ZM72.024 86.5C80.656 86.5 86.22 81.976 86.22 68.3C86.22 54.624 80.656 50.1 72.024 50.1C63.392 50.1 57.88 54.624 57.88 68.3C57.88 81.976 63.392 86.5 72.024 86.5ZM97.3634 76.932H104.643C104.643 83.38 106.619 86.552 111.923 86.552C116.967 86.552 120.347 84.784 120.347 81.144C120.347 78.18 116.603 77.556 109.011 76.256C101.055 74.8 98.5074 72.148 98.5074 66.948C98.5074 61.956 103.083 59.512 109.479 59.512C119.463 59.512 122.895 64.66 122.895 71.316L118.423 71.472C121.855 72.876 123.675 75.008 123.675 79.376C123.675 85.72 119.203 87.488 111.091 87.488C102.355 87.488 97.3634 84.004 97.3634 76.932ZM109.479 69.236C111.871 69.704 114.003 70.12 115.823 70.64C115.771 64.556 115.095 60.5 109.479 60.5C104.799 60.5 101.315 62.06 101.315 65.024C101.315 67.624 103.811 68.144 109.479 69.236ZM144.824 87.488C136.192 87.488 128.132 82.652 128.132 73.448C128.132 64.192 136.192 59.512 144.824 59.512C153.456 59.512 161.464 64.244 161.464 73.5C161.464 82.704 153.456 87.488 144.824 87.488ZM144.824 60.5C138.272 60.5 135.932 64.348 135.932 73.5C135.932 82.496 137.648 86.5 144.824 86.5C151.792 86.5 153.664 82.496 153.664 73.5C153.664 64.348 151.428 60.5 144.824 60.5ZM166.23 60.5H173.562V74.904C174.602 68.56 177.462 59.512 185.21 59.512C193.478 59.512 196.91 63.1 196.91 72.876V86.5H189.63V67.936C189.63 62.32 188.33 60.5 185.158 60.5C174.862 60.5 173.51 79.064 173.562 86.5H166.23V60.5ZM202.234 60.5H209.566V74.904C210.606 68.56 213.466 59.512 221.214 59.512C229.482 59.512 232.914 63.1 232.914 72.876V86.5H225.634V67.936C225.634 62.32 224.334 60.5 221.162 60.5C210.866 60.5 209.514 79.064 209.566 86.5H202.234V60.5ZM260.724 60.5H261.816L250.272 93.104C249.492 95.34 247.308 96.744 244.968 96.744C242.004 96.744 239.404 94.196 239.404 91.18C239.404 88.216 241.9 85.512 244.968 85.512V86.5C242.42 86.5 240.444 88.736 240.444 91.18C240.444 93.52 242.316 95.756 244.968 95.756C246.944 95.756 248.608 94.56 249.284 92.792L250.792 88.58L233.528 60.5H242.056L253.86 79.792L260.724 60.5ZM294.936 86.5H287.656V74.592C286.512 80.572 284.276 87.488 275.696 87.488C268.624 87.488 263.164 86.032 263.164 77.4C263.164 72.252 266.804 69.392 271.12 68.248L265.556 65.544C267.22 62.892 271.016 59.512 280.948 59.512C287.552 59.512 294.936 60.968 294.936 70.068V86.5ZM273.2 67.832C274.032 67.676 274.864 67.624 275.696 67.624H287.5C287.5 63.984 287.396 60.5 280.948 60.5C275.852 60.5 273.72 64.036 273.2 67.832ZM287.396 68.612H278.504C273.824 68.612 270.964 70.848 270.964 77.4C270.964 84.264 272.628 86.5 275.748 86.5C285.42 86.5 286.72 76.256 287.396 68.612Z" fill="black"/>
<path d="M72 92V137" stroke="black"/>
<path d="M72 0V45" stroke="black"/>
<path d="M0.5 68.5H45.5" stroke="black"/>
<path d="M33 106.213L54.2132 85" stroke="black"/>
<path d="M33 30.5L54.2132 51.7132" stroke="black"/>
<path d="M44.7499 21.249L59.1493 47.5766" stroke="black"/>
<path d="M58.5 16.5L66.1019 45.5214" stroke="black"/>
<path d="M65.0063 91.0648L57 119.978" stroke="black"/>
<path d="M58.2881 89.1664L43 114.981" stroke="black"/>
<path d="M50.2509 81.25L24.0035 95.7881" stroke="black"/>
<path d="M47.8934 75.7003L18.7974 83.0235" stroke="black"/>
<path d="M46.8934 62.2996L18.2291 53.3652" stroke="black"/>
<path d="M50.251 56.75L24.5765 41.2196" stroke="black"/>
<g clip-path="url(#clip1_2144_77)">
<path d="M142.216 108.544C143.008 108.544 143.636 108.776 144.1 109.24C144.572 109.696 144.808 110.364 144.808 111.244V114.904H143.956V111.328C143.956 110.672 143.792 110.172 143.464 109.828C143.136 109.484 142.668 109.312 142.06 109.312C141.38 109.312 140.84 109.516 140.44 109.924C140.048 110.324 139.852 110.88 139.852 111.592V114.904H139V106H139.852V109.696C140.084 109.328 140.404 109.044 140.812 108.844C141.22 108.644 141.688 108.544 142.216 108.544ZM152.905 108.592V114.904H152.089V113.656C151.833 114.08 151.493 114.404 151.069 114.628C150.653 114.852 150.181 114.964 149.653 114.964C149.061 114.964 148.525 114.828 148.045 114.556C147.565 114.284 147.189 113.904 146.917 113.416C146.645 112.928 146.509 112.372 146.509 111.748C146.509 111.124 146.645 110.568 146.917 110.08C147.189 109.592 147.565 109.216 148.045 108.952C148.525 108.68 149.061 108.544 149.653 108.544C150.165 108.544 150.625 108.652 151.033 108.868C151.449 109.076 151.789 109.384 152.053 109.792V108.592H152.905ZM149.725 114.208C150.165 114.208 150.561 114.108 150.913 113.908C151.273 113.7 151.553 113.408 151.753 113.032C151.961 112.656 152.065 112.228 152.065 111.748C152.065 111.268 151.961 110.84 151.753 110.464C151.553 110.088 151.273 109.8 150.913 109.6C150.561 109.392 150.165 109.288 149.725 109.288C149.277 109.288 148.873 109.392 148.513 109.6C148.161 109.8 147.881 110.088 147.673 110.464C147.473 110.84 147.373 111.268 147.373 111.748C147.373 112.228 147.473 112.656 147.673 113.032C147.881 113.408 148.161 113.7 148.513 113.908C148.873 114.108 149.277 114.208 149.725 114.208ZM158.493 108.544C159.285 108.544 159.913 108.776 160.377 109.24C160.849 109.696 161.085 110.364 161.085 111.244V114.904H160.233V111.328C160.233 110.672 160.069 110.172 159.741 109.828C159.413 109.484 158.945 109.312 158.337 109.312C157.657 109.312 157.117 109.516 156.717 109.924C156.325 110.324 156.129 110.88 156.129 111.592V114.904H155.277V108.592H156.093V109.756C156.325 109.372 156.645 109.076 157.053 108.868C157.469 108.652 157.949 108.544 158.493 108.544ZM169.182 106V114.904H168.366V113.656C168.11 114.08 167.77 114.404 167.346 114.628C166.93 114.852 166.458 114.964 165.93 114.964C165.338 114.964 164.802 114.828 164.322 114.556C163.842 114.284 163.466 113.904 163.194 113.416C162.922 112.928 162.786 112.372 162.786 111.748C162.786 111.124 162.922 110.568 163.194 110.08C163.466 109.592 163.842 109.216 164.322 108.952C164.802 108.68 165.338 108.544 165.93 108.544C166.442 108.544 166.902 108.652 167.31 108.868C167.726 109.076 168.066 109.384 168.33 109.792V106H169.182ZM166.002 114.208C166.442 114.208 166.838 114.108 167.19 113.908C167.55 113.7 167.83 113.408 168.03 113.032C168.238 112.656 168.342 112.228 168.342 111.748C168.342 111.268 168.238 110.84 168.03 110.464C167.83 110.088 167.55 109.8 167.19 109.6C166.838 109.392 166.442 109.288 166.002 109.288C165.554 109.288 165.15 109.392 164.79 109.6C164.438 109.8 164.158 110.088 163.95 110.464C163.75 110.84 163.65 111.268 163.65 111.748C163.65 112.228 163.75 112.656 163.95 113.032C164.158 113.408 164.438 113.7 164.79 113.908C165.15 114.108 165.554 114.208 166.002 114.208ZM179.427 108.544C180.219 108.544 180.839 108.772 181.287 109.228C181.743 109.684 181.971 110.356 181.971 111.244V114.904H181.119V111.328C181.119 110.672 180.959 110.172 180.639 109.828C180.327 109.484 179.883 109.312 179.307 109.312C178.651 109.312 178.135 109.516 177.759 109.924C177.383 110.324 177.195 110.88 177.195 111.592V114.904H176.343V111.328C176.343 110.672 176.183 110.172 175.863 109.828C175.551 109.484 175.103 109.312 174.519 109.312C173.871 109.312 173.355 109.516 172.971 109.924C172.595 110.324 172.407 110.88 172.407 111.592V114.904H171.555V108.592H172.371V109.744C172.595 109.36 172.907 109.064 173.307 108.856C173.707 108.648 174.167 108.544 174.687 108.544C175.215 108.544 175.671 108.656 176.055 108.88C176.447 109.104 176.739 109.436 176.931 109.876C177.163 109.46 177.495 109.136 177.927 108.904C178.367 108.664 178.867 108.544 179.427 108.544ZM190.065 108.592V114.904H189.249V113.656C188.993 114.08 188.653 114.404 188.229 114.628C187.813 114.852 187.341 114.964 186.813 114.964C186.221 114.964 185.685 114.828 185.205 114.556C184.725 114.284 184.349 113.904 184.077 113.416C183.805 112.928 183.669 112.372 183.669 111.748C183.669 111.124 183.805 110.568 184.077 110.08C184.349 109.592 184.725 109.216 185.205 108.952C185.685 108.68 186.221 108.544 186.813 108.544C187.325 108.544 187.785 108.652 188.193 108.868C188.609 109.076 188.949 109.384 189.213 109.792V108.592H190.065ZM186.885 114.208C187.325 114.208 187.721 114.108 188.073 113.908C188.433 113.7 188.713 113.408 188.913 113.032C189.121 112.656 189.225 112.228 189.225 111.748C189.225 111.268 189.121 110.84 188.913 110.464C188.713 110.088 188.433 109.8 188.073 109.6C187.721 109.392 187.325 109.288 186.885 109.288C186.437 109.288 186.033 109.392 185.673 109.6C185.321 109.8 185.041 110.088 184.833 110.464C184.633 110.84 184.533 111.268 184.533 111.748C184.533 112.228 184.633 112.656 184.833 113.032C185.041 113.408 185.321 113.7 185.673 113.908C186.033 114.108 186.437 114.208 186.885 114.208ZM198.198 106V114.904H197.382V113.656C197.126 114.08 196.786 114.404 196.362 114.628C195.946 114.852 195.474 114.964 194.946 114.964C194.354 114.964 193.818 114.828 193.338 114.556C192.858 114.284 192.482 113.904 192.21 113.416C191.938 112.928 191.802 112.372 191.802 111.748C191.802 111.124 191.938 110.568 192.21 110.08C192.482 109.592 192.858 109.216 193.338 108.952C193.818 108.68 194.354 108.544 194.946 108.544C195.458 108.544 195.918 108.652 196.326 108.868C196.742 109.076 197.082 109.384 197.346 109.792V106H198.198ZM195.018 114.208C195.458 114.208 195.854 114.108 196.206 113.908C196.566 113.7 196.846 113.408 197.046 113.032C197.254 112.656 197.358 112.228 197.358 111.748C197.358 111.268 197.254 110.84 197.046 110.464C196.846 110.088 196.566 109.8 196.206 109.6C195.854 109.392 195.458 109.288 195.018 109.288C194.57 109.288 194.166 109.392 193.806 109.6C193.454 109.8 193.174 110.088 192.966 110.464C192.766 110.84 192.666 111.268 192.666 111.748C192.666 112.228 192.766 112.656 192.966 113.032C193.174 113.408 193.454 113.7 193.806 113.908C194.166 114.108 194.57 114.208 195.018 114.208ZM203.27 114.208C203.662 114.208 204.022 114.14 204.35 114.004C204.686 113.86 204.97 113.652 205.202 113.38L205.682 113.932C205.402 114.268 205.054 114.524 204.638 114.7C204.222 114.876 203.762 114.964 203.258 114.964C202.61 114.964 202.034 114.828 201.53 114.556C201.026 114.276 200.634 113.892 200.354 113.404C200.074 112.916 199.934 112.364 199.934 111.748C199.934 111.132 200.066 110.58 200.33 110.092C200.602 109.604 200.974 109.224 201.446 108.952C201.918 108.68 202.454 108.544 203.054 108.544C203.614 108.544 204.118 108.672 204.566 108.928C205.022 109.184 205.382 109.54 205.646 109.996C205.918 110.452 206.062 110.972 206.078 111.556L200.894 112.564C201.054 113.076 201.342 113.48 201.758 113.776C202.182 114.064 202.686 114.208 203.27 114.208ZM203.054 109.276C202.614 109.276 202.218 109.38 201.866 109.588C201.522 109.788 201.25 110.072 201.05 110.44C200.858 110.8 200.762 111.216 200.762 111.688C200.762 111.808 200.766 111.896 200.774 111.952L205.226 111.088C205.13 110.56 204.886 110.128 204.494 109.792C204.102 109.448 203.622 109.276 203.054 109.276ZM213.569 114.964C212.945 114.964 212.385 114.828 211.889 114.556C211.401 114.284 211.017 113.904 210.737 113.416C210.457 112.92 210.317 112.364 210.317 111.748C210.317 111.132 210.457 110.58 210.737 110.092C211.017 109.604 211.401 109.224 211.889 108.952C212.385 108.68 212.945 108.544 213.569 108.544C214.113 108.544 214.597 108.652 215.021 108.868C215.453 109.076 215.793 109.384 216.041 109.792L215.405 110.224C215.197 109.912 214.933 109.68 214.613 109.528C214.293 109.368 213.945 109.288 213.569 109.288C213.113 109.288 212.701 109.392 212.333 109.6C211.973 109.8 211.689 110.088 211.481 110.464C211.281 110.84 211.181 111.268 211.181 111.748C211.181 112.236 211.281 112.668 211.481 113.044C211.689 113.412 211.973 113.7 212.333 113.908C212.701 114.108 213.113 114.208 213.569 114.208C213.945 114.208 214.293 114.132 214.613 113.98C214.933 113.828 215.197 113.596 215.405 113.284L216.041 113.716C215.793 114.124 215.453 114.436 215.021 114.652C214.589 114.86 214.105 114.964 213.569 114.964ZM220.309 114.208C220.701 114.208 221.061 114.14 221.389 114.004C221.725 113.86 222.009 113.652 222.241 113.38L222.721 113.932C222.441 114.268 222.093 114.524 221.677 114.7C221.261 114.876 220.801 114.964 220.297 114.964C219.649 114.964 219.073 114.828 218.569 114.556C218.065 114.276 217.673 113.892 217.393 113.404C217.113 112.916 216.973 112.364 216.973 111.748C216.973 111.132 217.105 110.58 217.369 110.092C217.641 109.604 218.013 109.224 218.485 108.952C218.957 108.68 219.493 108.544 220.093 108.544C220.653 108.544 221.157 108.672 221.605 108.928C222.061 109.184 222.421 109.54 222.685 109.996C222.957 110.452 223.101 110.972 223.117 111.556L217.933 112.564C218.093 113.076 218.381 113.48 218.797 113.776C219.221 114.064 219.725 114.208 220.309 114.208ZM220.093 109.276C219.653 109.276 219.257 109.38 218.905 109.588C218.561 109.788 218.289 110.072 218.089 110.44C217.897 110.8 217.801 111.216 217.801 111.688C217.801 111.808 217.805 111.896 217.813 111.952L222.265 111.088C222.169 110.56 221.925 110.128 221.533 109.792C221.141 109.448 220.661 109.276 220.093 109.276ZM225.668 109.828C225.868 109.404 226.164 109.084 226.556 108.868C226.956 108.652 227.448 108.544 228.032 108.544V109.372L227.828 109.36C227.164 109.36 226.644 109.564 226.268 109.972C225.892 110.38 225.704 110.952 225.704 111.688V114.904H224.852V108.592H225.668V109.828ZM235.276 108.592V114.904H234.46V113.656C234.204 114.08 233.864 114.404 233.44 114.628C233.024 114.852 232.552 114.964 232.024 114.964C231.432 114.964 230.896 114.828 230.416 114.556C229.936 114.284 229.56 113.904 229.288 113.416C229.016 112.928 228.88 112.372 228.88 111.748C228.88 111.124 229.016 110.568 229.288 110.08C229.56 109.592 229.936 109.216 230.416 108.952C230.896 108.68 231.432 108.544 232.024 108.544C232.536 108.544 232.996 108.652 233.404 108.868C233.82 109.076 234.16 109.384 234.424 109.792V108.592H235.276ZM232.096 114.208C232.536 114.208 232.932 114.108 233.284 113.908C233.644 113.7 233.924 113.408 234.124 113.032C234.332 112.656 234.436 112.228 234.436 111.748C234.436 111.268 234.332 110.84 234.124 110.464C233.924 110.088 233.644 109.8 233.284 109.6C232.932 109.392 232.536 109.288 232.096 109.288C231.648 109.288 231.244 109.392 230.884 109.6C230.532 109.8 230.252 110.088 230.044 110.464C229.844 110.84 229.744 111.268 229.744 111.748C229.744 112.228 229.844 112.656 230.044 113.032C230.252 113.408 230.532 113.7 230.884 113.908C231.244 114.108 231.648 114.208 232.096 114.208ZM245.52 108.544C246.312 108.544 246.932 108.772 247.38 109.228C247.836 109.684 248.064 110.356 248.064 111.244V114.904H247.212V111.328C247.212 110.672 247.052 110.172 246.732 109.828C246.42 109.484 245.976 109.312 245.4 109.312C244.744 109.312 244.228 109.516 243.852 109.924C243.476 110.324 243.288 110.88 243.288 111.592V114.904H242.436V111.328C242.436 110.672 242.276 110.172 241.956 109.828C241.644 109.484 241.196 109.312 240.612 109.312C239.964 109.312 239.448 109.516 239.064 109.924C238.688 110.324 238.5 110.88 238.5 111.592V114.904H237.648V108.592H238.464V109.744C238.688 109.36 239 109.064 239.4 108.856C239.8 108.648 240.26 108.544 240.78 108.544C241.308 108.544 241.764 108.656 242.148 108.88C242.54 109.104 242.832 109.436 243.024 109.876C243.256 109.46 243.588 109.136 244.02 108.904C244.46 108.664 244.96 108.544 245.52 108.544ZM250.375 108.592H251.227V114.904H250.375V108.592ZM250.807 107.212C250.631 107.212 250.483 107.152 250.363 107.032C250.243 106.912 250.183 106.768 250.183 106.6C250.183 106.44 250.243 106.3 250.363 106.18C250.483 106.06 250.631 106 250.807 106C250.983 106 251.131 106.06 251.251 106.18C251.371 106.292 251.431 106.428 251.431 106.588C251.431 106.764 251.371 106.912 251.251 107.032C251.131 107.152 250.983 107.212 250.807 107.212ZM256.214 114.964C255.59 114.964 255.03 114.828 254.534 114.556C254.046 114.284 253.662 113.904 253.382 113.416C253.102 112.92 252.962 112.364 252.962 111.748C252.962 111.132 253.102 110.58 253.382 110.092C253.662 109.604 254.046 109.224 254.534 108.952C255.03 108.68 255.59 108.544 256.214 108.544C256.758 108.544 257.242 108.652 257.666 108.868C258.098 109.076 258.438 109.384 258.686 109.792L258.05 110.224C257.842 109.912 257.578 109.68 257.258 109.528C256.938 109.368 256.59 109.288 256.214 109.288C255.758 109.288 255.346 109.392 254.978 109.6C254.618 109.8 254.334 110.088 254.126 110.464C253.926 110.84 253.826 111.268 253.826 111.748C253.826 112.236 253.926 112.668 254.126 113.044C254.334 113.412 254.618 113.7 254.978 113.908C255.346 114.108 255.758 114.208 256.214 114.208C256.59 114.208 256.938 114.132 257.258 113.98C257.578 113.828 257.842 113.596 258.05 113.284L258.686 113.716C258.438 114.124 258.098 114.436 257.666 114.652C257.234 114.86 256.75 114.964 256.214 114.964ZM262.051 114.964C261.539 114.964 261.047 114.892 260.575 114.748C260.111 114.596 259.747 114.408 259.483 114.184L259.867 113.512C260.131 113.72 260.463 113.892 260.863 114.028C261.263 114.156 261.679 114.22 262.111 114.22C262.687 114.22 263.111 114.132 263.383 113.956C263.663 113.772 263.803 113.516 263.803 113.188C263.803 112.956 263.727 112.776 263.575 112.648C263.423 112.512 263.231 112.412 262.999 112.348C262.767 112.276 262.459 112.208 262.075 112.144C261.563 112.048 261.151 111.952 260.839 111.856C260.527 111.752 260.259 111.58 260.035 111.34C259.819 111.1 259.711 110.768 259.711 110.344C259.711 109.816 259.931 109.384 260.371 109.048C260.811 108.712 261.423 108.544 262.207 108.544C262.615 108.544 263.023 108.6 263.431 108.712C263.839 108.816 264.175 108.956 264.439 109.132L264.067 109.816C263.547 109.456 262.927 109.276 262.207 109.276C261.663 109.276 261.251 109.372 260.971 109.564C260.699 109.756 260.563 110.008 260.563 110.32C260.563 110.56 260.639 110.752 260.791 110.896C260.951 111.04 261.147 111.148 261.379 111.22C261.611 111.284 261.931 111.352 262.339 111.424C262.843 111.52 263.247 111.616 263.551 111.712C263.855 111.808 264.115 111.972 264.331 112.204C264.547 112.436 264.655 112.756 264.655 113.164C264.655 113.716 264.423 114.156 263.959 114.484C263.503 114.804 262.867 114.964 262.051 114.964ZM271.063 114.964C270.551 114.964 270.059 114.892 269.587 114.748C269.123 114.596 268.759 114.408 268.495 114.184L268.879 113.512C269.143 113.72 269.475 113.892 269.875 114.028C270.275 114.156 270.691 114.22 271.123 114.22C271.699 114.22 272.123 114.132 272.395 113.956C272.675 113.772 272.815 113.516 272.815 113.188C272.815 112.956 272.739 112.776 272.587 112.648C272.435 112.512 272.243 112.412 272.011 112.348C271.779 112.276 271.471 112.208 271.087 112.144C270.575 112.048 270.163 111.952 269.851 111.856C269.539 111.752 269.271 111.58 269.047 111.34C268.831 111.1 268.723 110.768 268.723 110.344C268.723 109.816 268.943 109.384 269.383 109.048C269.823 108.712 270.435 108.544 271.219 108.544C271.627 108.544 272.035 108.6 272.443 108.712C272.851 108.816 273.187 108.956 273.451 109.132L273.079 109.816C272.559 109.456 271.939 109.276 271.219 109.276C270.675 109.276 270.263 109.372 269.983 109.564C269.711 109.756 269.575 110.008 269.575 110.32C269.575 110.56 269.651 110.752 269.803 110.896C269.963 111.04 270.159 111.148 270.391 111.22C270.623 111.284 270.943 111.352 271.351 111.424C271.855 111.52 272.259 111.616 272.563 111.712C272.867 111.808 273.127 111.972 273.343 112.204C273.559 112.436 273.667 112.756 273.667 113.164C273.667 113.716 273.435 114.156 272.971 114.484C272.515 114.804 271.879 114.964 271.063 114.964ZM278.35 114.52C278.19 114.664 277.994 114.776 277.762 114.856C277.53 114.928 277.286 114.964 277.03 114.964C276.438 114.964 275.982 114.804 275.662 114.484C275.342 114.164 275.182 113.712 275.182 113.128V107.212H276.034V108.592H277.942V109.312H276.034V113.08C276.034 113.456 276.126 113.744 276.31 113.944C276.494 114.136 276.762 114.232 277.114 114.232C277.498 114.232 277.81 114.124 278.05 113.908L278.35 114.52ZM282.252 114.964C281.644 114.964 281.096 114.828 280.608 114.556C280.12 114.276 279.736 113.892 279.456 113.404C279.176 112.916 279.036 112.364 279.036 111.748C279.036 111.132 279.176 110.58 279.456 110.092C279.736 109.604 280.12 109.224 280.608 108.952C281.096 108.68 281.644 108.544 282.252 108.544C282.86 108.544 283.408 108.68 283.896 108.952C284.384 109.224 284.764 109.604 285.036 110.092C285.316 110.58 285.456 111.132 285.456 111.748C285.456 112.364 285.316 112.916 285.036 113.404C284.764 113.892 284.384 114.276 283.896 114.556C283.408 114.828 282.86 114.964 282.252 114.964ZM282.252 114.208C282.7 114.208 283.1 114.108 283.452 113.908C283.812 113.7 284.092 113.408 284.292 113.032C284.492 112.656 284.592 112.228 284.592 111.748C284.592 111.268 284.492 110.84 284.292 110.464C284.092 110.088 283.812 109.8 283.452 109.6C283.1 109.392 282.7 109.288 282.252 109.288C281.804 109.288 281.4 109.392 281.04 109.6C280.688 109.8 280.408 110.088 280.2 110.464C280 110.84 279.9 111.268 279.9 111.748C279.9 112.228 280 112.656 280.2 113.032C280.408 113.408 280.688 113.7 281.04 113.908C281.4 114.108 281.804 114.208 282.252 114.208ZM288.011 109.828C288.211 109.404 288.507 109.084 288.899 108.868C289.299 108.652 289.791 108.544 290.375 108.544V109.372L290.171 109.36C289.507 109.36 288.987 109.564 288.611 109.972C288.235 110.38 288.047 110.952 288.047 111.688V114.904H287.195V108.592H288.011V109.828ZM294.559 114.208C294.951 114.208 295.311 114.14 295.639 114.004C295.975 113.86 296.259 113.652 296.491 113.38L296.971 113.932C296.691 114.268 296.343 114.524 295.927 114.7C295.511 114.876 295.051 114.964 294.547 114.964C293.899 114.964 293.323 114.828 292.819 114.556C292.315 114.276 291.923 113.892 291.643 113.404C291.363 112.916 291.223 112.364 291.223 111.748C291.223 111.132 291.355 110.58 291.619 110.092C291.891 109.604 292.263 109.224 292.735 108.952C293.207 108.68 293.743 108.544 294.343 108.544C294.903 108.544 295.407 108.672 295.855 108.928C296.311 109.184 296.671 109.54 296.935 109.996C297.207 110.452 297.351 110.972 297.367 111.556L292.183 112.564C292.343 113.076 292.631 113.48 293.047 113.776C293.471 114.064 293.975 114.208 294.559 114.208ZM294.343 109.276C293.903 109.276 293.507 109.38 293.155 109.588C292.811 109.788 292.539 110.072 292.339 110.44C292.147 110.8 292.051 111.216 292.051 111.688C292.051 111.808 292.055 111.896 292.063 111.952L296.515 111.088C296.419 110.56 296.175 110.128 295.783 109.792C295.391 109.448 294.911 109.276 294.343 109.276Z" fill="black"/>
</g>
</g>
<defs>
<clipPath id="clip0_2144_77">
<rect width="298" height="137" fill="white"/>
</clipPath>
<clipPath id="clip1_2144_77">
<rect width="159" height="9" fill="white" transform="translate(139 106)"/>
</clipPath>
</defs>
</svg>
